<?xml version="1.0" encoding="utf-8"?>
<!-- Generator: Adobe Illustrator 21.1.0, SVG Export Plug-In . SVG Version: 6.00 Build 0)  -->
<svg version="1.1" id="Capa_1" xmlns="http://www.w3.org/2000/svg" xmlns:xlink="http://www.w3.org/1999/xlink" x="0px" y="0px"
	 viewBox="0 0 160.9 160.8" style="enable-background:new 0 0 160.9 160.8;" xml:space="preserve">
<style type="text/css">
	.st0{fill:#FFFFFF;}
</style>
<g>
	<path class="st0" d="M80,141.3c-14.1,0-27.8-4.9-38.6-13.9c-0.5-0.4-0.6-1.2-0.2-1.8c0.4-0.5,1.2-0.6,1.8-0.2
		c10.4,8.6,23.5,13.3,37,13.3c13.6,0,26.7-4.8,37.1-13.4c0.5-0.4,1.3-0.4,1.8,0.2s0.4,1.3-0.2,1.8C107.8,136.4,94.1,141.3,80,141.3z
		"/>
</g>
<g>
	<path class="st0" d="M32.2,44.8c-0.3,0-0.5-0.1-0.7-0.2c-0.6-0.4-0.7-1.2-0.3-1.7C42.6,27.4,60.8,18.2,80,18.2
		c19.4,0,37.1,8.9,48.7,24.5c0.4,0.6,0.3,1.3-0.3,1.7c-0.6,0.4-1.3,0.3-1.7-0.3C115.5,29.3,98.5,20.7,80,20.7
		c-18.4,0-35.8,8.8-46.8,23.6C32.9,44.6,32.5,44.8,32.2,44.8z"/>
</g>
<g>
	<path class="st0" d="M27.9,28.7l-5.2-4.9l1.8-1.9l9.7,9l-10.7,0.6l5.3,4.9l-1.8,1.9l-9.7-9L27.9,28.7z"/>
	<path class="st0" d="M30.2,17.2l2.1-1.6l7.8,10.3L38,27.5L30.2,17.2z"/>
	<path class="st0" d="M43.9,8.4c0.8-0.4,1.6-0.7,2.5-0.7c0.9-0.1,1.7,0,2.5,0.3l-0.8,2.5c-1-0.3-2-0.2-3,0.2c-1,0.5-1.6,1.3-1.9,2.3
		c-0.3,1-0.2,2,0.3,3c0.5,1,1.3,1.6,2.3,1.9c1,0.3,2,0.2,3-0.2c1-0.5,1.6-1.3,1.9-2.3l2.5,0.8c-0.3,0.8-0.7,1.5-1.2,2.2
		c-0.5,0.7-1.2,1.2-2,1.6c-1.6,0.8-3.3,1-5,0.4c-1.7-0.6-3-1.6-3.8-3.2c-0.8-1.6-1-3.3-0.4-5C41.2,10.5,42.3,9.2,43.9,8.4L43.9,8.4z
		"/>
	<path class="st0" d="M66.5,2.9c1.5,1,2.5,2.3,2.9,4.1s0.1,3.4-0.8,4.9s-2.3,2.5-4.1,2.9S61.1,15,59.5,14s-2.5-2.3-2.9-4.1
		s-0.1-3.4,0.8-5s2.3-2.5,4.1-2.9S64.9,1.9,66.5,2.9z M59.6,6.4c-0.6,0.9-0.7,1.9-0.5,3c0.2,1.1,0.8,1.9,1.8,2.4
		c0.9,0.6,1.9,0.7,3,0.5c1.1-0.2,1.9-0.8,2.4-1.8s0.7-1.9,0.5-3c-0.2-1.1-0.8-1.9-1.8-2.4s-1.9-0.7-3-0.5C61,4.8,60.2,5.4,59.6,6.4z
		"/>
	<path class="st0" d="M89.9,13.9L86.1,0l0.5,0.1l1.7,0.2l0.1,0l0.4,0.1l2,7.4l4.1-6.6l0.5,0.1l2.2,0.3L89.9,13.9z"/>
	<path class="st0" d="M112.2,6.6L111.3,9l-4.8-1.8l-0.9,2.4l3.6,1.4l-0.9,2.4l-3.6-1.4l-0.9,2.4l4.8,1.8l-0.9,2.4l-4.8-1.8l-2.4-0.9
		l4.6-12.1L112.2,6.6z"/>
	<path class="st0" d="M124.6,13.4c0.8,0.5,1.4,1.1,1.8,1.8s0.8,1.5,1,2.3l-2.6,0.5c-0.2-1.1-0.8-1.9-1.7-2.5c-0.9-0.6-1.9-0.8-3-0.6
		c-1.1,0.2-1.9,0.8-2.5,1.7c-0.6,0.9-0.8,1.9-0.6,2.9s0.8,1.9,1.7,2.5c0.7,0.5,1.5,0.7,2.3,0.7c0.8,0,1.6-0.3,2.2-0.8l-3.1-2.1
		l1.4-2.2l3.1,2.1l1.3,0.8l1,0.7c-0.2,0.4-0.4,0.8-0.6,1.2c-1,1.5-2.4,2.4-4.2,2.8s-3.4,0-4.9-1c-1.5-1-2.4-2.4-2.8-4.2
		c-0.4-1.8,0-3.4,1-4.9c1-1.5,2.4-2.4,4.2-2.8S123.1,12.4,124.6,13.4L124.6,13.4z"/>
	<path class="st0" d="M129.2,31.3c-0.7,0.2-1.4,0.5-2,0.7l-1.9-2l13.6-4.7l-5.6,13.3l-1.9-2c0.3-0.7,0.6-1.3,0.8-2L129.2,31.3
		L129.2,31.3z M133.2,32.2l1.2-2.7l-2.8,1L133.2,32.2z"/>
</g>
<g>
	<path class="st0" d="M6.5,103.6l2.9-1l2.9-1l0.6,1.6l0.4,1.2c0.3,0.8,0.2,1.6-0.1,2.3c-0.4,0.8-0.9,1.3-1.7,1.6
		c-0.8,0.3-1.6,0.2-2.3-0.1s-1.3-0.9-1.5-1.7L7,105.3l-2.5,0.9L4,104.5L6.5,103.6z M9.1,105.9c0.1,0.3,0.3,0.6,0.7,0.7
		s0.7,0.2,1,0.1c0.3-0.1,0.6-0.3,0.7-0.7s0.2-0.7,0.1-1l-0.4-1.2l-1.2,0.4l-1.2,0.4L9.1,105.9z"/>
	<path class="st0" d="M17.8,114.9l-1.5,0.8l-1.5-3.1l-1.6,0.8l1.2,2.3l-1.5,0.8l-1.2-2.3l-1.5,0.8l1.5,3.1l-1.6,0.8l-1.5-3.1
		l-0.8-1.6l7.7-3.9L17.8,114.9z"/>
	<path class="st0" d="M20.3,119.2l-5.8,3.8l1.9,2.9l-1.5,1l-2.8-4.4l7.3-4.7L20.3,119.2z"/>
	<path class="st0" d="M28.5,129.8l-2.6,2.3l-1.3,1.1c-0.7,0.6-1.6,0.9-2.5,0.8s-1.8-0.5-2.4-1.2c-0.6-0.7-0.9-1.6-0.8-2.5
		c0.1-1,0.5-1.8,1.2-2.4l1.3-1.1l2.6-2.3l1.1,1.3l-2.6,2.3l-1.2,1l-0.1,0.1c-0.4,0.3-0.6,0.7-0.6,1.2c0,0.5,0.1,0.9,0.4,1.3
		c0.3,0.4,0.7,0.6,1.2,0.6c0.5,0,0.9-0.1,1.3-0.4l0.1-0.1l1.2-1l2.6-2.3L28.5,129.8z"/>
	<path class="st0" d="M33.9,134.8c0.9,0.8,1.4,1.8,1.5,3c0.1,1.2-0.3,2.3-1,3.2c-0.6,0.7-1.3,1.1-2.1,1.4l0.1,1l-1.7,0.1l-0.1-1
		c-0.9-0.1-1.6-0.5-2.3-1c-0.9-0.8-1.4-1.8-1.5-3s0.3-2.3,1-3.2s1.8-1.4,3-1.5C32,133.6,33,134,33.9,134.8L33.9,134.8z M32,138.9
		l0.1,1.6c0.4-0.2,0.7-0.4,0.9-0.7c0.5-0.5,0.7-1.2,0.6-1.9c-0.1-0.7-0.4-1.3-0.9-1.8c-0.6-0.5-1.2-0.7-1.9-0.6
		c-0.7,0.1-1.3,0.4-1.8,0.9c-0.5,0.6-0.7,1.2-0.6,1.9c0.1,0.7,0.4,1.3,0.9,1.8c0.3,0.3,0.6,0.4,1,0.5l-0.1-1.6L32,138.9z"/>
	<path class="st0" d="M45.6,143.1l-1.8,2.9l-0.9,1.5c-0.5,0.8-1.2,1.3-2.2,1.5c-0.9,0.2-1.8,0.1-2.6-0.4c-0.8-0.5-1.3-1.2-1.5-2.2
		c-0.2-0.9-0.1-1.8,0.4-2.6l0.9-1.5l1.8-2.9l1.5,0.9l-1.8,2.9l-0.8,1.3l-0.1,0.1c-0.3,0.4-0.3,0.8-0.2,1.3s0.4,0.8,0.8,1.1
		c0.4,0.2,0.8,0.3,1.3,0.2c0.5-0.1,0.8-0.4,1.1-0.8l0.1-0.1l0.8-1.3l1.8-2.9L45.6,143.1z"/>
	<path class="st0" d="M53.2,146.8l-0.7,1.6l-3.1-1.4l-0.7,1.6l2.4,1.1l-0.7,1.6l-2.4-1.1l-0.7,1.6l3.1,1.4l-0.7,1.6l-3.1-1.4
		l-1.6-0.7l3.6-7.9L53.2,146.8z"/>
	<path class="st0" d="M56.2,147.9l2.7,0.8c0.8,0.3,1.5,0.8,1.9,1.5s0.5,1.4,0.2,2.1l-0.1,0.3c-0.2,0.6-0.5,1-1,1.4
		c-0.5,0.4-0.8,0.4-1.5,0.5l1,3.5l-2-0.6l-1.1-3.9l-1,3.2l-1.7-0.5L56.2,147.9z M57.8,152.8c0.3,0.1,0.5,0.1,0.9-0.1
		c0.3-0.2,0.5-0.4,0.6-0.8c0.1-0.3,0.1-0.6-0.1-0.9c-0.2-0.3-0.6-0.5-0.9-0.7l-0.9-0.3l-0.7,2.3L57.8,152.8z"/>
	<path class="st0" d="M65.2,150.5l1.7,0.4l-1.7,8.5l-1.7-0.4L65.2,150.5z M68.2,148.6l-2.1,1.2l-0.5-0.6l1.7-1.6L68.2,148.6z"/>
	<path class="st0" d="M71.7,159l-0.7,1.2l-0.3,0l-0.1,0l-1.1-0.1l-0.4,0l4.7-8.4l3.1,9.1l-0.4,0l-1.1-0.1l-0.1,0l-0.3,0l-0.4-1.3
		l0-0.1L71.7,159L71.7,159z M74.1,157.6l-0.6-1.9l-0.9,1.7L74.1,157.6z"/>
	<path class="st0" d="M93.6,155.4c0.1,0.9,0.2,1.6-0.1,2.3c0.4,0.2,0.9,0.4,1.3,0.3l0.2,1.6c-0.7,0.1-1.3-0.1-1.7-0.3
		c-0.3-0.1-0.5-0.2-0.6-0.3c-0.1,0.2-0.2,0.2-0.3,0.4c-0.4,0.4-1.3,0.8-2,0.9c-0.8,0.1-1.5-0.1-2.1-0.5c-0.6-0.4-1-1.1-1.1-1.8
		c-0.1-1,0.4-1.6,0.9-2.2c0,0,0.1-0.1,0.1-0.1c-0.4-0.4-0.7-1-0.8-1.5c-0.1-0.7,0.1-1.1,0.5-1.6s1-0.9,1.7-1
		c0.6-0.1,1.1,0.1,1.6,0.3c0.5,0.3,0.8,0.7,1,1.3l-1.7,0.6c-0.1-0.2-0.2-0.3-0.3-0.4s-0.3-0.1-0.5-0.1c-0.3,0-0.6,0.3-0.6,0.6
		c0,0.2,0.5,0.9,0.6,0.9c0.2,0.2,0.6,0.7,1.3,1.2c0.2,0.1,0.8,0.6,1,0.8c0-0.3,0-0.7-0.1-1.2L93.6,155.4z M91.3,158
		c-0.2-0.1-1.3-0.8-1.9-1.5c-0.3,0.3-0.6,0.6-0.5,1.2c0,0.3,0.3,0.6,0.5,0.7c0.2,0.2,0.6,0.2,0.9,0.1C90.5,158.5,91,158.3,91.3,158
		C91.2,158.1,91.2,158.1,91.3,158L91.3,158z"/>
	<path class="st0" d="M104.4,148c1.1-0.4,2.3,0.2,2.8,1.2c0.1,0.2,0.1,0.5,0.1,0.7c1.1,0.1,2.2,0.7,2.7,2c0.3,0.8,0.3,1.5-0.1,2.3
		c-0.3,0.8-0.9,1.3-1.7,1.6l-2.8,1l-3-8.1L104.4,148L104.4,148z M105.4,150.6c0.3-0.1,0.4-0.4,0.3-0.7c-0.1-0.3-0.4-0.4-0.7-0.3
		l-0.4,0.1l0.4,1L105.4,150.6z M108.4,152.5c-0.1-0.3-0.4-0.6-0.7-0.7c-0.3-0.1-0.6-0.1-0.9,0.1l-1.2,0.4l0.9,2.3l1.2-0.4
		C108.3,153.9,108.7,153.2,108.4,152.5z"/>
	<path class="st0" d="M116.3,150.8c0,0.5,0.1,1,0.1,1.4l-1.6,0.9l-0.7-9.6l7.6,5.9l-1.6,0.9c-0.4-0.3-0.8-0.6-1.1-0.9L116.3,150.8
		L116.3,150.8z M117.5,148.4l-1.5-1.2l0.2,1.9L117.5,148.4z"/>
	<path class="st0" d="M120.1,140.1l2.3-1.7c0.7-0.5,1.5-0.7,2.3-0.6s1.4,0.4,1.9,1.1l0.2,0.2c0.4,0.5,0.5,1,0.5,1.6
		c0,0.6-0.1,0.9-0.5,1.4l3.4,1.3l-1.7,1.3l-3.8-1.4l2,2.7l-1.4,1L120.1,140.1z M125,141.7c0.3-0.2,0.4-0.4,0.4-0.7
		c0.1-0.4,0-0.6-0.3-0.9c-0.2-0.3-0.4-0.4-0.8-0.5c-0.4-0.1-0.8,0.1-1.1,0.3l-0.8,0.6l1.4,2L125,141.7z"/>
	<path class="st0" d="M129,133c0.8-0.8,2.2-0.8,3,0c0.2,0.2,0.3,0.4,0.4,0.6c1-0.4,2.3-0.3,3.3,0.7c0.6,0.6,0.8,1.3,0.8,2.2
		s-0.3,1.5-0.9,2.1l-2.2,2.1l-5.9-6.2L129,133L129,133z M130.9,135c0.2-0.2,0.2-0.5,0-0.7c-0.2-0.2-0.5-0.2-0.7,0l-0.3,0.3l0.7,0.8
		L130.9,135z M134.4,135.6c-0.2-0.3-0.6-0.4-0.9-0.4c-0.4,0-0.6,0.2-0.8,0.4l-0.9,0.9l1.7,1.8l0.9-0.9
		C134.9,136.9,134.9,136.1,134.4,135.6z"/>
	<path class="st0" d="M137.2,124l1.3,1.1l-2.2,2.7l1.3,1.1l1.6-2l1.3,1.1l-1.7,2l1.3,1.1l2.2-2.7l1.3,1.1l-2.2,2.7l-1.1,1.3
		l-6.7-5.5L137.2,124z"/>
	<path class="st0" d="M139.1,121.4l1.5-2.4c0.4-0.7,1.1-1.2,1.9-1.4c0.8-0.2,1.4-0.1,2.1,0.4l0.2,0.1c0.5,0.3,0.8,0.8,1.1,1.3
		c0.2,0.6,0.2,0.9,0.1,1.5l3.6,0l-1.1,1.8l-4,0.1l2.9,1.8l-0.9,1.5L139.1,121.4z M144.2,121.1c0.2-0.3,0.2-0.5,0.1-0.9
		s-0.3-0.6-0.6-0.8c-0.3-0.2-0.5-0.2-0.9-0.2s-0.7,0.4-0.9,0.7l-0.5,0.8l2.1,1.3L144.2,121.1z"/>
	<path class="st0" d="M142.8,109.9l0.7,2.3l-0.7,0.3l-1.1-2.1L142.8,109.9z M143.9,113.4l0.8-1.6l7.7,3.9l-0.8,1.6L143.9,113.4z"/>
	<path class="st0" d="M153.7,109.3c0.3,0.3,0.7,0.7,1,1l-0.6,1.7l-6.9-6.7l9.6-0.7l-0.6,1.8c-0.5,0-1,0.1-1.4,0.1L153.7,109.3
		L153.7,109.3z M153.1,106.6l-1.9,0.1l1.4,1.3L153.1,106.6z"/>
</g>
<g>
	<path class="st0" d="M51.2,124.8c-0.1,0.3-0.3,0.6-0.4,0.9h-1.3l2.7-6.1l2.7,6.1h-1.3c-0.1-0.3-0.3-0.6-0.4-0.9L51.2,124.8
		L51.2,124.8z M52.7,123.7l-0.5-1.2l-0.5,1.2H52.7z"/>
	<path class="st0" d="M61.9,119.7c0.8,0,1.6,0.3,2.2,0.9c1.1,1.1,1.1,3.2,0,4.2c-0.6,0.6-1.4,0.9-2.2,0.9h-1.5v-6L61.9,119.7
		L61.9,119.7z M62,124.5c0.5,0,0.9-0.1,1.3-0.5s0.5-0.8,0.5-1.3c0-0.5-0.1-1-0.5-1.3c-0.3-0.4-0.8-0.5-1.3-0.5h-0.3v3.6L62,124.5
		C62,124.5,62,124.5,62,124.5z"/>
	<path class="st0" d="M71.9,120.6c0.6,0.6,0.9,1.3,0.9,2.1s-0.3,1.5-0.9,2.1s-1.3,0.9-2.1,0.9s-1.5-0.3-2.1-0.9s-0.9-1.3-0.9-2.1
		s0.3-1.5,0.9-2.1s1.3-0.9,2.1-0.9S71.3,120,71.9,120.6z M68.4,121.4c-0.4,0.4-0.5,0.8-0.5,1.3c0,0.5,0.2,0.9,0.5,1.3
		c0.4,0.4,0.8,0.5,1.3,0.5c0.5,0,0.9-0.2,1.3-0.5c0.4-0.4,0.5-0.8,0.5-1.3c0-0.5-0.2-0.9-0.5-1.3s-0.8-0.5-1.3-0.5
		C69.2,120.9,68.8,121.1,68.4,121.4z"/>
	<path class="st0" d="M77.5,123.6l2.9-4v6.1h-1.2v-2.5l-1.7,2.4l-1.7-2.4v2.5h-1.2v-6.1L77.5,123.6z"/>
	<path class="st0" d="M82.5,119.7h1.2v6h-1.2V119.7z"/>
	<path class="st0" d="M88.6,119.7c0.4,0,0.8,0.1,1.2,0.2c0.4,0.2,0.7,0.4,1,0.6l-0.9,0.9c-0.4-0.4-0.8-0.5-1.3-0.5
		c-0.5,0-0.9,0.2-1.3,0.5c-0.4,0.4-0.5,0.8-0.5,1.3c0,0.5,0.2,0.9,0.5,1.3c0.4,0.4,0.8,0.5,1.3,0.5c0.5,0,0.9-0.2,1.3-0.5l0.9,0.9
		c-0.3,0.3-0.6,0.5-1,0.7c-0.4,0.2-0.8,0.2-1.2,0.2c-0.8,0-1.5-0.3-2.1-0.9s-0.9-1.3-0.9-2.1s0.3-1.5,0.9-2.1S87.8,119.7,88.6,119.7
		L88.6,119.7z"/>
	<path class="st0" d="M92.7,119.7h1.2v6h-1.2V119.7z"/>
	<path class="st0" d="M97.1,119.7v4.8h2.4v1.2h-3.6v-6C95.9,119.7,97.1,119.7,97.1,119.7z"/>
	<path class="st0" d="M101.4,119.7h1.2v6h-1.2V119.7z"/>
	<path class="st0" d="M109.6,120.6c0.6,0.6,0.9,1.3,0.9,2.1s-0.3,1.5-0.9,2.1s-1.3,0.9-2.1,0.9s-1.5-0.3-2.1-0.9s-0.9-1.3-0.9-2.1
		s0.3-1.5,0.9-2.1s1.3-0.9,2.1-0.9S109.1,120,109.6,120.6z M106.2,121.4c-0.4,0.4-0.5,0.8-0.5,1.3c0,0.5,0.2,0.9,0.5,1.3
		c0.4,0.4,0.8,0.5,1.3,0.5c0.5,0,0.9-0.2,1.3-0.5c0.4-0.4,0.5-0.8,0.5-1.3c0-0.5-0.2-0.9-0.5-1.3s-0.8-0.5-1.3-0.5
		C107,120.9,106.6,121.1,106.2,121.4z"/>
</g>
<g>
	<g>
		<g>
			<circle class="st0" cx="116.2" cy="99.9" r="1.3"/>
		</g>
	</g>
	<g>
		<g>
			<g>
				<g>
					<g>
						<path class="st0" d="M101.2,94.1c0.4,0,0.8-0.2,1-0.7c2.3-5,7.1-8.4,12.6-8.9c0.6,0,1.1-0.6,1-1.2c0-0.6-0.6-1.1-1.2-1
							c-6.3,0.5-11.9,4.4-14.5,10.2c-0.3,0.6,0,1.2,0.6,1.5C100.9,94,101,94.1,101.2,94.1z"/>
					</g>
				</g>
			</g>
		</g>
		<g>
			<g>
				<g>
					<g>
						<path class="st0" d="M71.1,91.9c0.1,0,0.2,0,0.4-0.1c0.6-0.2,0.9-0.8,0.7-1.4c-3.3-9.7-11.3-16-20.4-16
							c-6.7,0-13,3.5-17.2,9.5c-0.3,0.5-0.2,1.2,0.3,1.5c0.5,0.3,1.2,0.2,1.5-0.3c3.8-5.4,9.3-8.6,15.3-8.6
							c8.1,0,15.3,5.7,18.3,14.5C70.2,91.6,70.6,91.9,71.1,91.9z"/>
					</g>
				</g>
			</g>
		</g>
	</g>
	<g>
		<g>
			<path class="st0" d="M127.9,83.4c-3.6-2.9-7.5-3.8-9.3-4c0-1.3-0.1-3.7-0.5-5.9c-1.7-9.1-8.6-18.7-11.7-21.9
				c0.7,0,1.6,0.2,2.2,0.2c0.6,0.1,1,0.1,1.3,0.1c0,0,0.2,0,0.2,0c0.6-0.1,1-0.5,1-1.1v-0.6c2.4-0.2,4.3-3.1,4.3-6.7
				c0-3.6-1.9-6.5-4.3-6.7v-1c0-0.6-0.5-1.1-1.1-1.1c-0.4,0-1-0.1-1.9-0.1c-2.9,0-6.7,0.6-8.4,3.2c-1,1.6-1.9,2.9-2.7,3.8
				c-2.4,0.2-7.4,4.7-8.2,5.2c-0.9,0.6-0.7,2,0.5,2.6c0.7,0.4,1,0.5,2.3,0.4c0.5,0.8,1.2,1.6,2,2.5c0.8,0.9,1.6,1.8,2.2,2.7
				c2,3.1,6.2,16,1.6,28.2c-0.7,1.8-1.4,2.9-1.7,3.4c-2.7,0-14.9,0.1-17,0.1c-1.4,0-3.4-3-3.4-7.7c0-4.3,0.9-5.7,2.9-8.8l0.6-1
				c0.5-0.8,0.9-1.4,1.3-1.9h1.7c3.1,0,5.5-2.5,5.5-5.6c0-1.5-0.6-2.9-1.6-3.9c-1-1-2.4-1.6-3.9-1.6H42.9c-3.1,0-5.5,2.5-5.5,5.5
				c0,2.6,1.8,4.7,4.1,5.4c-5.2,4.8-8.8,9.9-11.1,15.4c-1.7,4.2-3,16.1-3.1,18.4c0,0.1,0,0.2,0,0.3c0,0.6,0.5,1.1,1.1,1.1
				c0,0,0,0,0,0h1.8v9.9c0,0.6,0.5,1.1,1.1,1.1c0.6,0,1.1-0.5,1.1-1.1v-9.9h2.1v9.9c0,0.6,0.5,1.1,1.1,1.1s1.1-0.5,1.1-1.1v-9.9H39
				v9.9c0,0.6,0.5,1.1,1.1,1.1c0.6,0,1.1-0.5,1.1-1.1v-9.9h2.1v9.9c0,0.6,0.5,1.1,1.1,1.1c0.6,0,1.1-0.5,1.1-1.1v-9.9h2.1v9.9
				c0,0.6,0.5,1.1,1.1,1.1c0.6,0,1.1-0.5,1.1-1.1v-9.9H52v9.9c0,0.6,0.5,1.1,1.1,1.1c0.6,0,1.1-0.5,1.1-1.1v-9.9h2.1v9.9
				c0,0.6,0.5,1.1,1.1,1.1c0.6,0,1.1-0.5,1.1-1.1v-9.9h2.1v9.9c0,0.6,0.5,1.1,1.1,1.1c0.6,0,1.1-0.5,1.1-1.1v-9.9H65v9.9
				c0,0.6,0.5,1.1,1.1,1.1c0.6,0,1.1-0.5,1.1-1.1v-9.9h2.1v9.9c0,0.6,0.5,1.1,1.1,1.1s1.1-0.5,1.1-1.1v-9.9h22.2
				c0.3,0,4.3,0,8.8-0.6c1.1,6.4,6.6,11.3,13.3,11.3c7.5,0,13.5-6.1,13.5-13.5c0-2.2-0.5-4.3-1.5-6.1c0.2,0,0.5,0,0.8,0
				c0.9,0,3.7,0,4.4-2C134,89,130.8,85.7,127.9,83.4z M42.7,57.7h26.1c0.5,0,0.9,0.4,0.9,0.9c0,0.5-0.4,0.9-0.9,0.9H42.7
				c-0.5,0-0.9-0.4-0.9-0.9C41.8,58.1,42.2,57.7,42.7,57.7z M116,107.6c-4,0-7.3-2.9-7.8-6.7c0.4-0.1,0.8-0.2,1.2-0.4
				c3.1-1,4.9-2.3,6.5-3.5c1.6-1.2,3.1-2.2,5.9-2.9c1.4,1.4,2.2,3.4,2.2,5.5C123.9,104,120.4,107.6,116,107.6z M131.1,90.7
				c-0.1,0.1-0.6,0.5-2.3,0.5c-8.9,0-11.5,2-14.3,4c-1.5,1.1-3.1,2.2-5.8,3.1c-5.6,1.8-14.7,1.9-14.8,1.9H29.7
				c0.3-3.4,1.4-13.2,2.8-16.7c2.4-5.7,6.3-10.9,12-15.9l2-0.1H77c-0.2,0.2-0.3,0.5-0.5,0.8l-0.6,0.9c-2.1,3.3-3.2,5.1-3.2,10
				c0,5.5,2.5,9.9,5.7,9.9c2.3,0,17.5-0.1,17.5-0.1c0.3,0,0.6-0.1,0.8-0.4c0-0.1,1.3-1.4,2.5-4.5c5-13,0.4-26.8-1.8-30.2
				c-0.7-1-1.5-2-2.3-3c-0.3-0.4-0.8-0.9-1.1-1.4c0.3,0,0.6-0.1,0.9-0.1c3.3-0.4,4.2-4.1,3.7-6.3c0.9-1.1,1.9-2.4,3-4.2
				c1.2-1.9,4.6-2.2,6.6-2.2c0.3,0,0.6,0,0.8,0v12.6c-0.8-0.1-1.9-0.3-2.8-0.3c-0.5,0-1.9,0-2.4,1.1c-0.5,1.1,0.5,2.1,0.9,2.5
				c2.9,2.9,9.7,12.1,11.3,20.9c0.5,2.9,0.4,6.4,0.4,6.4c0,0.3,0.1,0.6,0.3,0.8c0.2,0.2,0.5,0.3,0.8,0.3c0,0,4.8,0.1,9,3.6
				C130.3,88.2,131.2,90.2,131.1,90.7z"/>
		</g>
	</g>
</g>
<g>
	<circle class="st0" cx="17.9" cy="40.6" r="1.7"/>
</g>
<g>
	<circle class="st0" cx="141" cy="40.6" r="1.7"/>
</g>
<g>
	<path class="st0" d="M11.3,61.2c-1,2.6-2,5.1-3,7.7c-1-2.6-1.9-5.1-2.8-7.6c0,0,0,0-0.1,0c0,0.1-0.1,0.2-0.1,0.3c0,0.2,0,0.5,0,0.7
		c0.1,0.8,0.2,1.6,0.4,2.4c0.5,2.2,1,4.4,1.5,6.6c0,0.1,0,0.2,0,0.3c-0.7,1.9-1.6,3.8-2.5,5.6c-0.1,0.3-0.3,0.6-0.5,0.9
		c-0.1,0.1-0.2,0.2-0.3,0.2c-0.8-0.1-1.5,0.2-2,0.9c-0.5,0.7-0.5,1.4,0,2.2c0.3,0.6,0.3,1.2-0.2,1.6c-0.3,0.3-0.7,0.5-1.1,0.6
		c0,0,0,0.1,0,0.1c0,0.1,0.1,0.3,0.1,0.3c0.1,0.1,0.2,0,0.3,0c0.1-0.1,0.3-0.2,0.4-0.2c0.3-0.1,0.6-0.3,0.8-0.6
		c0.2-0.2,0.4-0.4,0.7-0.6c0.2-0.2,0.4-0.2,0.6-0.2c0.9,0,1.7-0.4,2-1.2c0.3-0.8,0.2-1.7-0.5-2.3c-0.1-0.1-0.2-0.2-0.1-0.4
		C5,78.2,5,78,5.1,77.8C5.6,77,6,76.2,6.4,75.4c0.3-0.5,0.6-1,1.1-1.3C8.1,73.5,8,73.5,8.7,74c0.6,0.4,1.1,1,1.4,1.6
		c0.4,0.8,0.9,1.6,1.3,2.4c0.1,0.2,0.1,0.5-0.1,0.7c-0.3,0.3-0.5,0.7-0.5,1.2c0,0.9,0.3,1.6,1,2.2c0.6,0.5,1.3,0.6,2,0.3
		c0.7-0.3,1.1-0.8,1.1-1.5c0.2-1.5-1-2.8-2.5-2.8c-0.1,0-0.2-0.1-0.3-0.1c-0.2-0.2-0.3-0.4-0.4-0.6c-0.9-1.8-1.7-3.7-2.4-5.6
		c-0.1-0.1-0.1-0.3,0-0.4c0.7-2.6,1.4-5.1,1.9-7.7c0.1-0.6,0.2-1.3,0.2-1.9C11.4,61.5,11.4,61.4,11.3,61.2
		C11.3,61.2,11.3,61.2,11.3,61.2z M4.7,81.4c-0.6,0.6-1.6,0.5-2.1-0.1C2,80.7,2,79.7,2.6,79.1c0.6-0.6,1.6-0.5,2.1,0.1
		C5.3,79.9,5.3,80.8,4.7,81.4z M13.3,78.8c0.8,0.4,1.3,1.3,1.1,2.2c-0.2,1-1.2,1.5-2.1,1c-0.8-0.5-1.2-1.6-0.9-2.4
		c0.1-0.2,0.2-0.4,0.3-0.6C12.2,78.6,12.8,78.5,13.3,78.8z"/>
	<path class="st0" d="M0.7,84.5c-0.2,0-0.4-0.1-0.5-0.2c-0.1-0.2-0.2-0.3-0.2-0.4c-0.1-0.3,0-0.4,0-0.5L0.1,83l0.3,0
		c0.3-0.1,0.6-0.2,0.9-0.4c0.3-0.3,0.4-0.6,0.1-1C1,80.7,1,79.7,1.5,78.9c0.5-0.8,1.4-1.2,2.4-1.1l0,0c0.2-0.2,0.3-0.5,0.4-0.7
		c1.1-2.1,1.8-3.9,2.5-5.6l-0.6-2.3c-0.3-1.4-0.7-2.9-1-4.3C5.1,64.2,5,63.6,4.9,63l-0.1-0.5c0-0.2,0-0.4,0-0.7l0-0.1
		c0-0.1,0-0.2,0-0.3L4.9,61l0.4-0.1l0.4,0l0.2,0.3l2.4,6.4l2.7-6.9l0.8,0.1l0.1,0.5c0,0.1,0.1,0.3,0,0.4l0,0.4
		c-0.1,0.5-0.1,1.1-0.2,1.6c-0.5,2.7-1.2,5.3-1.9,7.8c0,0.1,0,0.1,0,0.1c0.7,1.8,1.5,3.7,2.4,5.6c0.1,0.2,0.2,0.3,0.3,0.5
		c0.9,0,1.6,0.4,2.2,1c0.6,0.6,0.8,1.5,0.8,2.4c-0.1,0.9-0.6,1.6-1.5,1.9c-0.3,0.1-0.6,0.2-0.9,0.2l0,0c-0.6,0-1.1-0.2-1.5-0.6
		c-0.7-0.6-1.1-1.5-1.1-2.5c0-0.6,0.2-1.2,0.6-1.6l-0.2-0.5c-0.4-0.7-0.7-1.4-1.1-2.1c-0.4-0.7-0.8-1.2-1.2-1.5
		c-0.1-0.1-0.2-0.2-0.3-0.2c0,0-0.1,0.1-0.2,0.1l-0.1,0.1c-0.4,0.3-0.7,0.7-1,1.2C6.5,76.4,6,77.2,5.6,78c-0.1,0.1-0.1,0.3-0.2,0.4
		l0,0c0.8,0.8,1,1.8,0.6,2.8c-0.4,1-1.3,1.5-2.4,1.5l-0.1,0c0,0,0,0,0,0c-0.1,0-0.2,0-0.3,0.1c-0.2,0.2-0.4,0.4-0.7,0.6
		c-0.3,0.3-0.6,0.6-1,0.7c-0.1,0-0.2,0.1-0.3,0.2C1.1,84.4,1,84.5,0.7,84.5z M12.1,79.3l-0.1,0.1c-0.1,0.1-0.1,0.2-0.2,0.3
		c-0.3,0.6,0,1.4,0.7,1.8c0.6,0.4,1.3,0,1.4-0.6c0.1-0.6-0.2-1.4-0.8-1.7C12.8,79,12.4,79.1,12.1,79.3z M3.6,79.2
		c-0.2,0-0.5,0.1-0.7,0.3c-0.2,0.2-0.3,0.4-0.3,0.7c0,0.3,0.1,0.5,0.3,0.7c0.4,0.4,1,0.4,1.4,0.1c0.4-0.4,0.5-1,0.1-1.4
		C4.2,79.4,3.9,79.2,3.6,79.2z M8.1,73.1c0.3,0,0.5,0.1,0.8,0.4c0.3,0.2,0.6,0.4,0.8,0.7c-0.3-0.8-0.6-1.5-0.9-2.3
		c-0.1-0.2-0.1-0.5,0-0.7c0.5-2,1.1-4.1,1.6-6.2l-2.1,5.4l-1.9-5.2c0.3,1.2,0.6,2.5,0.9,3.7l0.5,2.2c0.1,0.2,0,0.4,0,0.6
		c-0.3,0.7-0.6,1.5-0.9,2.2c0.1-0.1,0.2-0.2,0.4-0.3l0.1-0.1C7.6,73.3,7.8,73.1,8.1,73.1z"/>
</g>
<g>
	<path class="st0" d="M149.5,61.3c0,0.1-0.1,0.3-0.1,0.4c0.1,0.6,0.1,1.3,0.2,1.9c0.5,2.6,1.2,5.2,1.9,7.7c0,0.2,0,0.3,0,0.4
		c-0.7,1.9-1.5,3.8-2.4,5.6c-0.1,0.2-0.3,0.4-0.4,0.6c-0.1,0.1-0.2,0.1-0.3,0.1c-1.5,0-2.7,1.3-2.5,2.8c0.1,0.7,0.5,1.2,1.1,1.5
		c0.7,0.3,1.4,0.2,2-0.3c0.6-0.6,0.9-1.3,1-2.2c0-0.5-0.1-0.9-0.5-1.2c-0.2-0.2-0.2-0.4-0.1-0.7c0.4-0.8,0.9-1.6,1.3-2.4
		c0.3-0.7,0.8-1.2,1.4-1.6c0.7-0.4,0.6-0.4,1.2,0.1c0.4,0.4,0.8,0.8,1.1,1.3c0.4,0.8,0.9,1.6,1.3,2.4c0.1,0.2,0.2,0.4,0.2,0.6
		c0.1,0.1,0,0.3-0.1,0.4c-0.6,0.6-0.8,1.5-0.5,2.3c0.3,0.8,1.1,1.3,2,1.2c0.2,0,0.5,0.1,0.6,0.2c0.2,0.2,0.5,0.4,0.7,0.6
		c0.2,0.2,0.5,0.4,0.8,0.6c0.1,0.1,0.3,0.1,0.4,0.2c0.1,0.1,0.2,0.1,0.3,0c0.1-0.1,0.1-0.2,0.1-0.3c0,0,0-0.1,0-0.1
		c-0.4-0.1-0.8-0.3-1.1-0.6c-0.5-0.5-0.6-1-0.2-1.6c0.4-0.7,0.4-1.5,0-2.2c-0.5-0.7-1.1-1-2-0.9c-0.2,0-0.3-0.1-0.3-0.2
		c-0.2-0.3-0.4-0.6-0.5-0.9c-0.9-1.8-1.8-3.7-2.5-5.6c0-0.1,0-0.2,0-0.3c0.5-2.2,1-4.4,1.5-6.6c0.2-0.8,0.3-1.6,0.4-2.4
		c0-0.2,0-0.5,0-0.7c0-0.1,0-0.2-0.1-0.3c0,0,0,0-0.1,0c-0.9,2.5-1.9,5-2.8,7.6C151.6,66.4,150.6,63.9,149.5,61.3
		C149.6,61.3,149.5,61.3,149.5,61.3z M156.1,79.3c0.6-0.6,1.5-0.7,2.1-0.1c0.6,0.6,0.7,1.5,0.1,2.1c-0.6,0.6-1.5,0.7-2.1,0.1
		C155.6,80.9,155.5,80,156.1,79.3z M149.1,79c0.1,0.2,0.3,0.4,0.3,0.6c0.3,0.9-0.1,1.9-0.9,2.4c-0.9,0.5-1.9,0.1-2.1-1
		c-0.2-0.9,0.3-1.8,1.1-2.2C148.1,78.6,148.7,78.7,149.1,79z"/>
	<path class="st0" d="M160.1,84.6c-0.2,0-0.4-0.1-0.5-0.2c-0.1-0.1-0.2-0.1-0.3-0.2c-0.4-0.1-0.7-0.4-1-0.7
		c-0.2-0.2-0.4-0.4-0.7-0.6c-0.1-0.1-0.2-0.1-0.3-0.1l-0.1,0c-1.1,0-1.9-0.6-2.4-1.5c-0.4-1-0.2-2,0.6-2.8l0,0
		c0-0.1-0.1-0.3-0.2-0.4c-0.4-0.8-0.9-1.6-1.3-2.4c-0.3-0.5-0.6-0.9-1-1.2l-0.1-0.1c-0.1,0-0.1-0.1-0.2-0.1c-0.1,0-0.2,0.1-0.3,0.2
		c-0.5,0.3-0.9,0.8-1.3,1.5c-0.4,0.7-0.7,1.4-1.1,2.1l-0.2,0.4c0.4,0.5,0.7,1,0.7,1.7c0,1-0.4,1.9-1.1,2.5c-0.7,0.6-1.6,0.8-2.5,0.4
		c-0.9-0.3-1.4-1-1.5-1.9c-0.1-0.9,0.2-1.7,0.8-2.4c0.6-0.6,1.3-1,2.2-1c0.1-0.2,0.2-0.3,0.3-0.5c0.9-1.9,1.7-3.8,2.4-5.6
		c0-0.1,0-0.1,0-0.1c-0.7-2.5-1.4-5.1-1.9-7.8c-0.1-0.5-0.2-1.1-0.2-1.6l0-0.4c0-0.2,0-0.3,0-0.4l0.1-0.5l0.8,0l0.2,0.3l2.5,6.5
		l2.5-6.7l0.8,0.1l0.1,0.4c0,0.2,0.1,0.3,0.1,0.4l0,0.1c0,0.2,0,0.4,0,0.7l-0.1,0.5c-0.1,0.6-0.2,1.2-0.3,1.9
		c-0.3,1.4-0.7,2.9-1,4.3l-0.5,2.2c0.6,1.7,1.4,3.5,2.4,5.6c0.1,0.3,0.3,0.5,0.4,0.7l0,0c0.9-0.1,1.8,0.3,2.4,1.1
		c0.6,0.8,0.6,1.8,0.1,2.7c-0.2,0.4-0.2,0.7,0.1,1c0.3,0.2,0.5,0.4,0.9,0.4l0.3,0.1l0.1,0.3c0,0,0.1,0.2,0,0.4
		c-0.1,0.2-0.1,0.4-0.2,0.5C160.5,84.5,160.3,84.6,160.1,84.6z M148.2,79.2c-0.1,0-0.3,0-0.4,0.1c-0.6,0.3-1,1-0.8,1.7
		c0.1,0.7,0.8,1,1.4,0.6c0.6-0.3,0.9-1.2,0.7-1.8c0-0.1-0.1-0.2-0.2-0.3l-0.1-0.1C148.6,79.3,148.4,79.2,148.2,79.2z M157.2,79.3
		c-0.3,0-0.6,0.1-0.8,0.3c-0.4,0.4-0.3,1.1,0.1,1.4c0.4,0.4,1.1,0.3,1.4-0.1c0.2-0.2,0.3-0.5,0.3-0.7c0-0.3-0.1-0.5-0.3-0.7
		C157.7,79.4,157.5,79.3,157.2,79.3z M150.5,65c0.5,2.1,1,4.2,1.6,6.2c0.1,0.2,0.1,0.5,0,0.7c-0.3,0.7-0.6,1.5-0.9,2.3
		c0.2-0.2,0.5-0.4,0.7-0.6c0.4-0.3,0.6-0.4,0.9-0.4c0.3,0,0.5,0.2,0.8,0.4l0.1,0.1c0.1,0.1,0.3,0.2,0.4,0.3
		c-0.3-0.8-0.6-1.5-0.9-2.2c-0.1-0.2-0.1-0.4,0-0.6l0.5-2.3c0.3-1.2,0.6-2.5,0.9-3.7l-1.9,5.2L150.5,65z"/>
</g>
</svg>
